<svg xmlns="http://www.w3.org/2000/svg" width="64" height="64" viewBox="0 0 64 64">
    <g fill="none" fill-rule="evenodd">
        <path fill="#51D167" d="M63.616 31.81c0 17.567-14.24 31.81-31.81 31.81C14.241 63.62 0 49.377 0 31.81 0 14.245 14.24 0 31.806 0c17.57 0 31.81 14.245 31.81 31.81"/>
        <path fill="#FFF" d="M26.478 43.043l-8.47-8.904c-.595-.625-.827-1.536-.61-2.389.218-.853.852-1.52 1.664-1.748.812-.23 1.678.015 2.272.64l6.82 7.143L44.387 20.72c.594-.625 1.46-.869 2.272-.64.812.228 1.446.895 1.664 1.748.217.854-.015 1.764-.61 2.389L29.806 43.043c-.44.464-1.04.725-1.663.725-.624 0-1.223-.261-1.664-.725z"/>
    </g>
</svg>
